HIERARCHY
ROOT Hip
{
  OFFSET 0.0 0.0 0.0
  CHANNELS 6 Xposition Yposition Zposition Xrotation Yrotation Zrotation
  JOINT LowerSpine
  {
    OFFSET 0.0 0.061367 -0.03653
    CHANNELS 3 Xrotation Yrotation Zrotation
    JOINT MiddleSpine
    {
      OFFSET 0.0 0.056002 0.002633
      CHANNELS 3 Xrotation Yrotation Zrotation
      JOINT Chest
      {
        OFFSET 0.0 0.069296 -0.013882
        CHANNELS 3 Xrotation Yrotation Zrotation
        JOINT Neck
        {
          OFFSET 0.0 0.156156 -0.002923
          CHANNELS 3 Xrotation Yrotation Zrotation
          JOINT Head
          {
            OFFSET 0.0 0.088183 0.023986
            CHANNELS 3 Xrotation Yrotation Zrotation
            End Site
            {
              OFFSET 1e-06 0.123215 0.003678
            }
          }
        }
        JOINT LClavicle
        {
          OFFSET 0.014189 0.150698 0.046467
          CHANNELS 3 Xrotation Yrotation Zrotation
          JOINT LShoulder
          {
            OFFSET 0.082893 0.021616 -0.034976
            CHANNELS 3 Xrotation Yrotation Zrotation
            JOINT LForearm
            {
              OFFSET 0.195645 -0.000695 -0.001695
              CHANNELS 3 Xrotation Yrotation Zrotation
              JOINT LHand
              {
                OFFSET 0.163209 0.000474 -0.000977
                CHANNELS 3 Xrotation Yrotation Zrotation
                End Site
                {
                  OFFSET 0.0 0.006864 0.0
                }
              }
            }
          }
        }
        JOINT RClavicle
        {
          OFFSET -0.014189 0.150698 0.046467
          CHANNELS 3 Xrotation Yrotation Zrotation
          JOINT RShoulder
          {
            OFFSET -0.082908 0.021619 -0.034982
            CHANNELS 3 Xrotation Yrotation Zrotation
            JOINT RForearm
            {
              OFFSET -0.195645 -0.000695 -0.001695
              CHANNELS 3 Xrotation Yrotation Zrotation
              JOINT RHand
              {
                OFFSET -0.163209 0.000474 -0.000977
                CHANNELS 3 Xrotation Yrotation Zrotation
                End Site
                {
                  OFFSET 0.0 0.006864 0.0
                }
              }
            }
          }
        }
      }
    }
  }
  JOINT RThigh
  {
    OFFSET -0.072558 0.02774 -0.005953
    CHANNELS 3 Xrotation Yrotation Zrotation
    JOINT RShin
    {
      OFFSET -0.005253 -0.285537 0.0
      CHANNELS 3 Xrotation Yrotation Zrotation
      JOINT RFoot
      {
        OFFSET 0.0 -0.28038 0.0
        CHANNELS 3 Xrotation Yrotation Zrotation
        JOINT RToe
        {
          OFFSET 0.0 -0.030816 0.064441
          CHANNELS 3 Xrotation Yrotation Zrotation
          End Site
          {
            OFFSET 0.0 0.0 0.043231
          }
        }
      }
    }
  }
  JOINT LThigh
  {
    OFFSET 0.072557 0.027741 -0.005953
    CHANNELS 3 Xrotation Yrotation Zrotation
    JOINT LShin
    {
      OFFSET 0.005253 -0.285539 0.0
      CHANNELS 3 Xrotation Yrotation Zrotation
      JOINT LFoot
      {
        OFFSET 0.0 -0.28038 0.0
        CHANNELS 3 Xrotation Yrotation Zrotation
        JOINT LToe
        {
          OFFSET 0.0 -0.030816 0.064441
          CHANNELS 3 Xrotation Yrotation Zrotation
          End Site
          {
            OFFSET 0.0 0.0 0.043231
          }
        }
      }
    }
  }
}
MOTION
Frames: 9
Frame Time: 0.03333333333333333
0.142439 0.567084 1.657678 10.370801 -45.077446 4.276977 -0.322635 -0.331533 -0.272546 -1.443058 -1.149255 1.300474 -8.005648 -8.822959 4.031826 -0.891032 0.053887 -0.308904 0.006343 -0.018953 -0.007797 0.93239 0.661627 -14.934711 15.613396 -33.910381 -56.60997 9.900701 -25.407993 -1.171634 0.027437 0.062436 -0.023985 0.166454 0.012667 12.496033 25.280905 25.272923 57.951717 5.87641 16.501842 2.543015 0.105705 -0.161617 0.001531 -8.46353 -14.635395 7.820557 5.400771 -7.46441 1.13668 -0.244231 2.392226 0.541602 0.021914 0.176212 0.04969 -9.970004 -4.473694 2.353262 30.811546 -0.079221 0.111587 -1.062628 0.344377 0.332512 -0.184003 0.029243 0.031973 
0.131795 0.561538 1.660619 10.433067 -45.835644 4.296009 -0.250625 -0.294787 -0.229782 -1.300098 -1.000243 1.225304 -8.026907 -8.063151 3.631877 -0.914883 0.056682 -0.250685 0.013628 -0.004141 -0.005251 0.823389 0.58867 -14.863639 16.716593 -34.723156 -56.700508 11.698985 -22.272459 -1.446364 0.025596 0.058306 -0.018561 0.201603 0.259708 12.390876 24.357206 28.721516 56.80508 5.685779 16.476274 2.418792 0.115393 -0.179947 0.00229 -6.027734 -13.947208 7.421577 3.983266 -7.176533 1.344747 -0.965608 2.250496 0.54014 0.016729 0.161636 0.05539 -13.315543 -5.424312 3.146431 34.744473 -0.543156 0.202121 -0.943358 0.389157 0.311333 -0.122107 0.034933 0.02932 
0.120385 0.563862 1.670594 9.910151 -45.50285 4.418187 -0.241547 -0.243463 -0.179531 -1.137112 -0.768421 1.100567 -8.331803 -7.284993 2.968551 -0.986611 0.067687 -0.160794 0.022442 0.016803 -0.001698 0.688871 0.572822 -14.839821 17.792414 -35.328697 -57.001106 12.511906 -19.469751 -1.860155 0.025197 0.056642 -0.015412 0.205163 0.490819 12.412219 23.587378 31.247217 55.921734 5.252673 16.604433 2.468137 0.13302 -0.194775 0.005183 -4.26109 -12.40032 6.523923 3.370824 -6.580017 1.492232 -1.648252 2.042143 0.485861 0.022583 0.154497 0.057753 -16.80094 -5.956203 2.709629 36.057713 -1.08355 0.229759 -0.924195 0.3862 0.299172 -0.068017 0.038009 0.030093 
0.110555 0.564447 1.680238 8.706741 -47.873802 4.140188 -0.272837 -0.178357 -0.09895 -0.990867 -0.528025 0.981633 -8.053942 -6.303524 2.241449 -1.010158 0.137605 -0.090704 0.025716 0.002796 0.007118 0.517877 0.430971 -14.849483 18.565662 -35.354065 -57.986217 11.777728 -17.035069 -2.054649 0.029406 0.061303 -0.022675 0.153396 0.756668 12.446284 22.602001 32.487392 54.55238 5.396388 17.560575 2.222554 0.129902 -0.216243 0.00299 -1.99453 -9.761524 5.987763 2.623752 -5.596954 1.467245 -1.905242 1.981029 0.444835 -0.007045 0.162055 0.0666 -17.965317 -5.967306 1.554649 33.080528 -1.836894 0.262626 -1.128434 0.409391 0.358657 -0.025424 0.015546 0.014212 
0.102204 0.563962 1.68672 8.406487 -56.327866 5.29661 -0.303893 -0.125207 0.001115 -0.873779 -0.395729 0.907477 -7.444377 -5.130415 1.941263 -1.038416 0.208905 -0.089065 0.025886 -0.037871 0.01912 0.365541 0.106657 -14.903596 18.599005 -34.450726 -59.763363 9.658505 -15.349223 -2.036868 0.04372 0.088409 -0.046324 0.129143 0.931301 12.393936 21.21793 31.736235 53.978302 4.688961 19.120293 1.674916 0.103204 -0.242296 -0.006419 0.261727 -7.46384 5.772146 2.346423 -4.752456 1.352208 -1.949345 2.026099 0.416499 -0.067548 0.212797 0.085804 -18.534435 -5.272084 0.14463 27.383018 -2.929292 0.757494 -1.327981 0.444979 0.452354 0.023581 -0.036287 -0.017527 
0.097949 0.561919 1.686813 8.068422 -62.082283 6.168189 -0.331946 -0.105631 0.023781 -0.988879 -0.357565 0.900124 -7.041933 -4.23644 2.334468 -0.917235 0.267001 -0.144168 0.023487 -0.042815 0.029925 0.337748 -0.081212 -14.869899 18.640966 -32.828815 -61.64299 8.465358 -15.569683 -2.349252 0.060013 0.124397 -0.070631 0.265808 0.696307 12.227688 19.601885 30.622587 54.539024 3.304769 20.092752 1.37094 0.103366 -0.26289 -0.013329 1.183364 -5.821186 5.293766 2.814136 -4.194866 1.445422 -2.384708 1.994472 0.381279 -0.127099 0.269295 0.086434 -21.506414 -4.732868 -1.441077 21.904282 -3.632524 1.692221 -1.292311 0.535429 0.537538 0.062245 -0.080212 -0.042615 
0.084875 0.559922 1.684872 11.993639 -68.444237 11.400607 -0.366501 -0.116988 0.048848 -1.137816 -0.337801 0.922922 -6.720928 -3.096731 2.781382 -0.757104 0.320012 -0.207517 0.020079 -0.048822 0.050381 0.333718 -0.126982 -14.92917 19.311562 -30.608076 -62.849968 7.907877 -16.699957 -2.50706 0.063537 0.131396 -0.074437 0.312 0.305803 12.29655 18.293642 30.068287 54.487862 2.64942 21.146269 1.485605 0.083523 -0.239752 -0.012893 1.528642 -4.938141 4.903383 3.861264 -4.141031 1.651894 -2.620155 1.852916 0.274472 -0.176833 0.279426 0.079262 -23.944939 -4.104903 -2.179255 17.928219 -3.654601 2.254453 -0.955282 0.55308 0.545389 0.076299 -0.100146 -0.057096 
0.06519 0.558485 1.683419 21.708305 -74.542274 22.047365 -0.432549 -0.101148 0.104629 -1.304996 -0.338682 0.934769 -6.23271 -2.068637 3.189255 -0.639117 0.360382 -0.26175 0.018486 -0.053699 0.077138 0.376755 -0.0643 -14.87265 20.135138 -28.685856 -63.567772 7.8559 -17.532124 -2.270933 0.061349 0.123149 -0.06445 0.307939 -0.136332 12.685494 17.615919 29.65357 53.726086 2.406689 22.52766 1.598495 0.066831 -0.208958 -0.010838 2.136093 -4.617359 4.811105 5.23852 -4.295483 1.75717 -2.63629 1.737911 0.198339 -0.228089 0.265129 0.076904 -25.192942 -3.728613 -2.476599 15.31916 -3.479454 2.585763 -0.575921 0.597898 0.533008 0.082435 -0.098484 -0.059211 
0.044674 0.557009 1.681031 34.849304 -78.239906 35.654686 -0.529486 -0.084934 0.172424 -1.414373 -0.315373 0.927146 -5.670298 -1.269677 3.40311 -0.569621 0.378791 -0.315219 0.017728 -0.064206 0.097266 0.384413 -0.000364 -14.838357 20.65589 -27.197559 -64.087402 7.835195 -17.895292 -1.891315 0.058668 0.114774 -0.055886 0.298601 -0.41176 13.151662 17.084009 29.092115 53.343723 2.089555 23.237589 1.637987 0.043763 -0.187759 -0.011758 2.798818 -4.561194 4.934731 6.41073 -4.459761 1.787753 -2.645563 1.643461 0.146846 -0.264914 0.245664 0.074899 -25.384775 -3.611352 -2.52748 13.414622 -3.459291 2.790269 -0.288068 0.593334 0.49475 0.090863 -0.100499 -0.060582 
